<svg version="1.1" xmlns="http://www.w3.org/2000/svg" viewBox="0 0 508.38985023203304 489.24315250826066" width="508.38985023203304" height="489.24315250826066" class="excalidraw-svg">
  <!-- svg-source:excalidraw -->
  
  <defs>
    <style class="style-fonts">
      @font-face {
        font-family: "Virgil";
        src: url("https://excalidraw.com/Virgil.woff2");
      }
      @font-face {
        font-family: "Cascadia";
        src: url("https://excalidraw.com/Cascadia.woff2");
      }
      @font-face {
        font-family: "Assistant";
        src: url("https://excalidraw.com/Assistant-Regular.woff2");
      }
    </style>
    
  </defs>
  <rect x="0" y="0" width="508.38985023203304" height="489.24315250826066" fill="#ffffff"/><g stroke-linecap="round"><g transform="translate(10.355217732517048 479.50927702647635) rotate(0 0 -234.0856475830078)"><path d="M1.06 -0.27 C1.22 -78.39, 1.35 -389.83, 1.1 -467.66 M0.16 -1.45 C0.25 -79.42, 0.99 -391.58, 0.73 -469.51" stroke="#1e1e1e" stroke-width="2" fill="none"/></g><g transform="translate(10.355217732517048 479.50927702647635) rotate(0 0 -234.0856475830078)"><path d="M11 -441.32 C7.11 -448.15, 5.22 -459.41, 0.73 -469.51 M11 -441.32 C7.07 -451.8, 2.13 -463.2, 0.73 -469.51" stroke="#1e1e1e" stroke-width="2" fill="none"/></g><g transform="translate(10.355217732517048 479.50927702647635) rotate(0 0 -234.0856475830078)"><path d="M-9.52 -441.32 C-7.03 -448.34, -2.54 -459.59, 0.73 -469.51 M-9.52 -441.32 C-5.64 -451.77, -2.78 -463.16, 0.73 -469.51" stroke="#1e1e1e" stroke-width="2" fill="none"/></g></g><mask/><g stroke-linecap="round"><g transform="translate(9.776482380954548 477.7731320069451) rotate(0 244.5023193359375 0)"><path d="M1.1 0.51 C82.36 0.72, 407.18 1.09, 488.61 0.97 M0.22 -0.26 C81.2 -0.35, 405.95 -0.86, 487.46 -0.65" stroke="#1e1e1e" stroke-width="2" fill="none"/></g><g transform="translate(9.776482380954548 477.7731320069451) rotate(0 244.5023193359375 0)"><path d="M459.27 9.61 C471.1 4.71, 482.81 2.53, 487.46 -0.65 M459.27 9.61 C466.32 6.23, 474.72 4.65, 487.46 -0.65" stroke="#1e1e1e" stroke-width="2" fill="none"/></g><g transform="translate(9.776482380954548 477.7731320069451) rotate(0 244.5023193359375 0)"><path d="M459.27 -10.92 C471.06 -7.84, 482.76 -2.05, 487.46 -0.65 M459.27 -10.92 C466.36 -8.5, 474.75 -4.27, 487.46 -0.65" stroke="#1e1e1e" stroke-width="2" fill="none"/></g></g><mask/><g stroke-linecap="round"><g transform="translate(234.89220503720455 207.51855437022635) rotate(0 19.67596435546875 21.701370239257812)"><path d="M-0.39 0.97 C10.15 -13.72, 37.06 -87.58, 64.35 -87.59 C91.64 -87.61, 165.3 -30.22, 163.36 0.89 C161.43 32, 99.64 77.22, 52.74 99.06 C5.84 120.89, -88.6 142.74, -118.04 131.88 C-147.48 121.02, -135.95 49.96, -123.89 33.88 C-111.83 17.79, -66.33 41.03, -45.67 35.39 C-25.01 29.74, -7.4 5.76, 0.06 0 M1.6 0.43 C11.95 -14.12, 36.92 -86.49, 63.76 -86.16 C90.61 -85.84, 164.58 -28.64, 162.69 2.37 C160.8 33.38, 98.9 78.77, 52.42 99.9 C5.95 121.04, -86.99 140.39, -116.15 129.19 C-145.3 117.98, -134.41 48.04, -122.5 32.7 C-110.59 17.35, -64.96 42.64, -44.7 37.13 C-24.44 31.63, -8.48 5.86, -0.93 -0.34" stroke="#1e1e1e" stroke-width="2" fill="none"/></g></g><mask/><g stroke-linecap="round"><g transform="translate(229.49976307190246 247.78623034106096) rotate(0 9.637525261968563 10.629593554943064)"><path d="M0.69 -0.21 C5.98 -7.45, 18.32 -42.49, 31.35 -42.49 C44.38 -42.49, 79.78 -15.6, 78.86 -0.21 C77.93 15.18, 48.54 39.19, 25.8 49.85 C3.06 60.52, -43.28 69.5, -57.59 63.79 C-71.89 58.09, -65.86 23.3, -60.03 15.64 C-54.2 7.99, -32.47 20.33, -22.61 17.86 C-12.76 15.4, -4.63 3.95, -0.92 0.86" stroke="#1e1e1e" stroke-width="2.5" fill="none" stroke-dasharray="8 10"/></g></g><mask/><g stroke-linecap="round"><g transform="translate(232.88282357740988 231.33418501873828) rotate(0 13.250810832261934 14.614823784296973)"><path d="M0.17 0.31 C7.02 -9.54, 23.6 -59.53, 41.79 -59.34 C59.99 -59.14, 110.27 -19.54, 109.34 1.48 C108.41 22.5, 67.5 52.52, 36.2 66.77 C4.89 81.03, -58.57 94.29, -78.49 87 C-98.41 79.7, -91.07 33.26, -83.34 23 C-75.61 12.73, -45.93 29.36, -32.1 25.42 C-18.27 21.47, -5.54 3.72, -0.35 -0.67" stroke="#1e1e1e" stroke-width="2.5" fill="none" stroke-dasharray="8 10"/></g></g><mask/><g stroke-linecap="round"><g transform="translate(234.2324249432398 182.3479381392741) rotate(0 25.64523930421069 28.28511085711318)"><path d="M-1.08 -0.49 C12.63 -19.34, 46.78 -112.96, 82.41 -112.8 C118.03 -112.64, 214.6 -39.76, 212.66 0.49 C210.72 40.73, 131.72 100.33, 70.77 128.66 C9.82 156.99, -114.2 184.35, -153.05 170.47 C-191.91 156.58, -177.73 65.96, -162.33 45.36 C-146.94 24.76, -87.59 54.58, -60.69 46.86 C-33.79 39.15, -11.19 6.71, -0.93 -0.93" stroke="#1e1e1e" stroke-width="2.5" fill="none" stroke-dasharray="8 10"/></g></g><mask/><g stroke-linecap="round"><g transform="translate(228.43642517053388 266.452566750711) rotate(0 5.531136614073702 6.100501166671723)"><path d="M-0.56 1.09 C2.59 -2.96, 10 -24.5, 17.85 -24.83 C25.69 -25.17, 46.94 -9.72, 46.5 -0.92 C46.06 7.88, 28.6 21.56, 15.19 27.99 C1.78 34.41, -25.55 40.8, -33.94 37.63 C-42.34 34.45, -38.49 13.65, -35.16 8.93 C-31.83 4.21, -19.95 10.64, -13.95 9.32 C-7.95 8, -1.36 2.63, 0.86 1.01" stroke="#1e1e1e" stroke-width="2.5" fill="none" stroke-dasharray="8 10"/></g></g><mask/><g stroke-linecap="round"><g transform="translate(237.99091531785223 158.92626101003654) rotate(0 31.15617649414267 34.36333330981691)"><path d="M-0.05 -0.27 C16.95 -23.69, 58.34 -139.65, 101.42 -139.45 C144.51 -139.25, 261.33 -48.74, 258.47 0.92 C255.62 50.58, 158.44 124.24, 84.3 158.49 C10.16 192.74, -139.48 223.99, -186.37 206.43 C-233.26 188.87, -216.02 77.75, -197.03 53.14 C-178.05 28.52, -105.19 67.68, -72.45 58.75 C-39.72 49.83, -12.75 9.27, -0.63 -0.42" stroke="#1e1e1e" stroke-width="2.5" fill="none" stroke-dasharray="8 10"/></g></g><mask/></svg>