<svg version="1.1" xmlns="http://www.w3.org/2000/svg" viewBox="0 0 652.2268251373062 649.1299651605012" width="652.2268251373062" height="649.1299651605012" filter="invert(93%) hue-rotate(180deg)" class="excalidraw-svg">
  <!-- svg-source:excalidraw -->
  
  <defs>
    <style class="style-fonts">
      @font-face {
        font-family: "Virgil";
        src: url("https://excalidraw.com/Virgil.woff2");
      }
      @font-face {
        font-family: "Cascadia";
        src: url("https://excalidraw.com/Cascadia.woff2");
      }
      @font-face {
        font-family: "Assistant";
        src: url("https://excalidraw.com/Assistant-Regular.woff2");
      }
    </style>
    
  </defs>
  <rect x="0" y="0" width="652.2268251373062" height="649.1299651605012" fill="#ffffff"/><g stroke-linecap="round"><g transform="translate(184.46920338335917 185.92395628955455) rotate(0 142.6361083984375 0)"><path d="M-1.21 2.65 C45.96 2.53, 237.08 1.89, 285.27 1.55 M3.33 1.61 C49.92 0.48, 235.65 -3.02, 283.04 -2.62" stroke="#1e1e1e" stroke-width="2" fill="none"/></g></g><mask/><g stroke-linecap="round"><g transform="translate(183.20138111773417 182.12036742236705) rotate(0 0 185.74386596679688)"><path d="M0 1.55 C0.65 63.12, 2.57 310.72, 2.7 372.09 M-3.44 -0.07 C-2.81 61.8, 1.46 305.41, 1.92 367.4" stroke="#1e1e1e" stroke-width="2" fill="none"/></g></g><mask/><g stroke-linecap="round"><g transform="translate(472.2771867817967 185.29004515674205) rotate(0 -1.4210854715202004e-14 184.15902709960938)"><path d="M2.7 0.6 C2.82 61.43, 1.17 304.83, 0.75 366.56 M0.71 -1.54 C0.53 59.47, -0.71 307.82, -1.09 369.23" stroke="#1e1e1e" stroke-width="2" fill="none"/></g></g><mask/><g stroke-linecap="round"><g transform="translate(181.93343678179667 554.875982656742) rotate(0 144.8548583984375 0)"><path d="M0.75 -1.76 C48.61 -1.42, 241.62 2.37, 289.86 2.66 M-2.29 3.45 C44.96 3.03, 239.21 -0.84, 287.7 -0.91" stroke="#1e1e1e" stroke-width="2" fill="none"/></g></g><mask/><g stroke-linecap="round" transform="translate(111.96271818932871 483.7326921159215) rotate(44.99999999999995 29.715873926940702 10.285204908496326)"><path d="M5.14 0 C23.1 0.32, 37.22 -0.92, 54.29 0 M5.14 0 C20.54 0.44, 36.65 -0.4, 54.29 0 M54.29 0 C56.12 -1.54, 61.4 0.35, 59.43 5.14 M54.29 0 C56.2 -1.06, 57.75 2.33, 59.43 5.14 M59.43 5.14 C59.41 8.16, 60.37 11.68, 59.43 15.43 M59.43 5.14 C59.41 7.2, 59.03 10.18, 59.43 15.43 M59.43 15.43 C60.34 17.27, 55.92 18.92, 54.29 20.57 M59.43 15.43 C61.19 18.18, 59.96 21.91, 54.29 20.57 M54.29 20.57 C37.57 22.04, 20.13 19.04, 5.14 20.57 M54.29 20.57 C42.3 20.87, 28.98 19.81, 5.14 20.57 M5.14 20.57 C1.55 18.67, 1.9 18.03, 0 15.43 M5.14 20.57 C-0.32 22.31, 1.96 17.43, 0 15.43 M0 15.43 C0.33 10.44, 0.16 8.08, 0 5.14 M0 15.43 C-0.2 13.05, -0.17 9.63, 0 5.14 M0 5.14 C0.68 2.73, 2.37 -0.63, 5.14 0 M0 5.14 C-1.44 -0.41, -0.15 0.36, 5.14 0" stroke="#1971c2" stroke-width="2" fill="none"/></g><g stroke-linecap="round" transform="translate(109.03072682085917 462.3210204985389) rotate(0 32.330841064453125 86.84951782226562)"><path d="M16.17 0 C26 -0.95, 36.38 -0.89, 48.5 0 M16.17 0 C28.22 -0.27, 40.09 -1.04, 48.5 0 M48.5 0 C61.24 -1.36, 63.34 4.47, 64.66 16.17 M48.5 0 C57.59 0.62, 64.36 4.49, 64.66 16.17 M64.66 16.17 C66.6 55.18, 63.59 92.74, 64.66 157.53 M64.66 16.17 C63.59 69.66, 64.92 122.36, 64.66 157.53 M64.66 157.53 C62.86 166.66, 60.8 173.11, 48.5 173.7 M64.66 157.53 C66.91 169.65, 60.37 174.17, 48.5 173.7 M48.5 173.7 C36.92 172.07, 24.55 172.7, 16.17 173.7 M48.5 173.7 C38.99 172.96, 28.3 172.83, 16.17 173.7 M16.17 173.7 C7.29 172.87, -1.77 169.82, 0 157.53 M16.17 173.7 C7.35 172.27, 2.14 167.75, 0 157.53 M0 157.53 C-0.15 119.13, -0.89 79.02, 0 16.17 M0 157.53 C0.17 119.68, 0.73 82.74, 0 16.17 M0 16.17 C0.66 4.76, 4.14 -1.85, 16.17 0 M0 16.17 C-1.86 5.75, 7.56 1.78, 16.17 0" stroke="#1971c2" stroke-width="2" fill="none"/></g><g stroke-linecap="round" transform="translate(110.77475279626219 522.3079408341832) rotate(44.99999999999995 29.715873926940702 10.285204908496326)"><path d="M5.14 0 C21.2 -0.61, 37.96 -0.8, 54.29 0 M5.14 0 C23.24 -0.77, 43.91 -0.68, 54.29 0 M54.29 0 C56.39 -0.92, 57.97 2.25, 59.43 5.14 M54.29 0 C57.41 -0.9, 58.68 1.77, 59.43 5.14 M59.43 5.14 C58.96 8.82, 60.34 11.3, 59.43 15.43 M59.43 5.14 C59.57 6.89, 58.88 9.03, 59.43 15.43 M59.43 15.43 C60.96 18.26, 59.67 21.74, 54.29 20.57 M59.43 15.43 C60.53 19.33, 59.07 21, 54.29 20.57 M54.29 20.57 C35.91 18.94, 19.23 22, 5.14 20.57 M54.29 20.57 C38.26 19.22, 23.34 19.75, 5.14 20.57 M5.14 20.57 C-0.06 22.08, 1.71 17.61, 0 15.43 M5.14 20.57 C3.85 20.01, -0.42 19.54, 0 15.43 M0 15.43 C-0.25 13.89, -0.36 10.87, 0 5.14 M0 15.43 C0.2 11.67, 0.19 7.23, 0 5.14 M0 5.14 C-1.25 -0.14, 0.1 0.32, 5.14 0 M0 5.14 C2.18 3.49, 3.19 -0.61, 5.14 0" stroke="#1971c2" stroke-width="2" fill="none"/></g><g stroke-linecap="round" transform="translate(110.99783629235594 562.201190345902) rotate(44.99999999999995 29.715873926940702 10.285204908496326)"><path d="M5.14 0 C19.33 -0.82, 31.92 -0.41, 54.29 0 M5.14 0 C20.88 -0.3, 33.98 -0.08, 54.29 0 M54.29 0 C56.26 0.54, 59.17 0.93, 59.43 5.14 M54.29 0 C56.96 0.05, 59.57 3.91, 59.43 5.14 M59.43 5.14 C60.18 8.72, 58.44 11.69, 59.43 15.43 M59.43 5.14 C59.02 7.8, 59.87 11.15, 59.43 15.43 M59.43 15.43 C61.38 20.03, 58.67 20.98, 54.29 20.57 M59.43 15.43 C60.79 19.29, 59.07 20.6, 54.29 20.57 M54.29 20.57 C44.24 22.16, 34.24 21.38, 5.14 20.57 M54.29 20.57 C44.52 19.69, 31.96 20.86, 5.14 20.57 M5.14 20.57 C3.42 19.33, 1.86 18.37, 0 15.43 M5.14 20.57 C1.3 21.25, -2.13 19.17, 0 15.43 M0 15.43 C-0.32 11.32, 0.95 7.56, 0 5.14 M0 15.43 C0.13 12.39, -0.36 9.2, 0 5.14 M0 5.14 C-1.62 2.03, 3.61 1.55, 5.14 0 M0 5.14 C1.48 1.11, 2.83 -1.22, 5.14 0" stroke="#1971c2" stroke-width="2" fill="none"/></g><g stroke-linecap="round" transform="translate(108.19400328454344 597.6654847794957) rotate(44.99999999999995 29.715873926940702 10.285204908496326)"><path d="M5.14 0 C19.54 -0.37, 30.55 -1.35, 54.29 0 M5.14 0 C15.44 -0.13, 26.33 0.6, 54.29 0 M54.29 0 C57.45 -0.78, 58.78 1.76, 59.43 5.14 M54.29 0 C57.86 2.19, 60.86 0.44, 59.43 5.14 M59.43 5.14 C58.58 7.85, 59.51 12.84, 59.43 15.43 M59.43 5.14 C59.73 7.26, 59.84 9.98, 59.43 15.43 M59.43 15.43 C60.39 19.27, 58.9 20.95, 54.29 20.57 M59.43 15.43 C60.79 18.88, 55.62 19.72, 54.29 20.57 M54.29 20.57 C42.95 22.13, 29 20.87, 5.14 20.57 M54.29 20.57 C43.33 21.12, 34.99 19.75, 5.14 20.57 M5.14 20.57 C3.57 20.08, -0.36 19.45, 0 15.43 M5.14 20.57 C-0.41 20.88, 1.64 18.32, 0 15.43 M0 15.43 C0.96 11.52, -0.17 8.42, 0 5.14 M0 15.43 C-0.36 11.34, -0.45 8.29, 0 5.14 M0 5.14 C1.89 3.26, 3 -0.53, 5.14 0 M0 5.14 C1.12 0.5, 2.33 1.45, 5.14 0" stroke="#1971c2" stroke-width="2" fill="none"/></g><g stroke-linecap="round" transform="translate(482.5154220467506 121.12104359653733) rotate(44.99999999999995 29.715873926940702 10.285204908496326)"><path d="M5.14 0 C17.38 -1.45, 28.07 2.12, 54.29 0 M5.14 0 C15.81 0.49, 27.81 -0.17, 54.29 0 M54.29 0 C57.06 0.04, 59.56 3.62, 59.43 5.14 M54.29 0 C59.15 -1.27, 60.61 3.52, 59.43 5.14 M59.43 5.14 C59.34 8.55, 58.52 10.1, 59.43 15.43 M59.43 5.14 C60.01 7.68, 59.76 9.72, 59.43 15.43 M59.43 15.43 C60.61 19.23, 58.9 20.59, 54.29 20.57 M59.43 15.43 C57.34 18.01, 56.35 20.83, 54.29 20.57 M54.29 20.57 C33.29 20.68, 13.66 22.74, 5.14 20.57 M54.29 20.57 C42.43 20.32, 29.79 20.7, 5.14 20.57 M5.14 20.57 C1.35 21.16, -1.85 19.13, 0 15.43 M5.14 20.57 C3.36 20.03, 1.33 18.08, 0 15.43 M0 15.43 C-0.3 12.98, 0.43 10.17, 0 5.14 M0 15.43 C-0.35 12.75, 0.55 10.3, 0 5.14 M0 5.14 C1.28 1.19, 2.69 -1.06, 5.14 0 M0 5.14 C0.62 3.16, 3.42 1.65, 5.14 0" stroke="#1971c2" stroke-width="2" fill="none"/></g><g stroke-linecap="round" transform="translate(479.58343067828105 99.70937197915475) rotate(0 32.330841064453125 86.84951782226562)"><path d="M16.17 0 C23.33 2.23, 32.2 -1.06, 48.5 0 M16.17 0 C24.25 -0.48, 32.26 -0.06, 48.5 0 M48.5 0 C59.4 1.91, 65.9 4.28, 64.66 16.17 M48.5 0 C60.45 1.8, 64.34 3.31, 64.66 16.17 M64.66 16.17 C63.07 44.35, 63 77.67, 64.66 157.53 M64.66 16.17 C66.52 54.6, 66.63 92.81, 64.66 157.53 M64.66 157.53 C65.84 168.33, 57.45 172.96, 48.5 173.7 M64.66 157.53 C63.3 168.57, 61.44 174.26, 48.5 173.7 M48.5 173.7 C35.12 175.57, 24.72 171.9, 16.17 173.7 M48.5 173.7 C37.28 173.25, 24.03 173.79, 16.17 173.7 M16.17 173.7 C3.54 173.97, 1.43 167.84, 0 157.53 M16.17 173.7 C6.72 172.93, -0.64 170.39, 0 157.53 M0 157.53 C1.31 118.9, -0.34 77.69, 0 16.17 M0 157.53 C2.09 128.98, 1.79 98.62, 0 16.17 M0 16.17 C0.97 4.33, 5.93 1.26, 16.17 0 M0 16.17 C1.7 7.04, 7.63 1.68, 16.17 0" stroke="#1971c2" stroke-width="2" fill="none"/></g><g stroke-linecap="round" transform="translate(481.32745665368407 159.69629231479905) rotate(44.99999999999995 29.715873926940702 10.285204908496326)"><path d="M5.14 0 C14.6 -1.81, 25.85 -1.94, 54.29 0 M5.14 0 C20.87 0.22, 37.32 1.15, 54.29 0 M54.29 0 C58.96 -1.1, 60.46 3.28, 59.43 5.14 M54.29 0 C57.4 -2.08, 57.41 1.71, 59.43 5.14 M59.43 5.14 C58.5 9.48, 59.05 13.25, 59.43 15.43 M59.43 5.14 C59.78 8.93, 59.78 12.52, 59.43 15.43 M59.43 15.43 C57.61 18.12, 56.53 20.79, 54.29 20.57 M59.43 15.43 C61.59 19.42, 58.98 18.69, 54.29 20.57 M54.29 20.57 C39.11 19.27, 27.1 22.74, 5.14 20.57 M54.29 20.57 C42.42 20.75, 29.98 20.59, 5.14 20.57 M5.14 20.57 C3.14 20.1, 1.16 18.18, 0 15.43 M5.14 20.57 C1.08 22.65, -0.51 18.39, 0 15.43 M0 15.43 C-0.38 11.35, -1 7.72, 0 5.14 M0 15.43 C0.23 12.04, 0.15 8.66, 0 5.14 M0 5.14 C0.54 2.97, 3.19 1.44, 5.14 0 M0 5.14 C2.25 3.39, 1.18 -0.56, 5.14 0" stroke="#1971c2" stroke-width="2" fill="none"/></g><g stroke-linecap="round" transform="translate(481.5505401497778 199.5895418265178) rotate(44.99999999999995 29.715873926940702 10.285204908496326)"><path d="M5.14 0 C23.8 -1.13, 44.83 0.06, 54.29 0 M5.14 0 C18.02 0.94, 31.4 -0.56, 54.29 0 M54.29 0 C58.74 1.57, 59.16 -0.09, 59.43 5.14 M54.29 0 C55.7 -0.01, 60.47 -0.11, 59.43 5.14 M59.43 5.14 C59.04 8.31, 59.95 9.95, 59.43 15.43 M59.43 5.14 C59.8 8.45, 59.02 11.55, 59.43 15.43 M59.43 15.43 C58.24 19.08, 59.6 21.06, 54.29 20.57 M59.43 15.43 C60.69 16.97, 57.53 18.39, 54.29 20.57 M54.29 20.57 C36.39 21.84, 14.23 21.99, 5.14 20.57 M54.29 20.57 C39.82 20.85, 27.91 20.48, 5.14 20.57 M5.14 20.57 C2.87 19.9, -0.55 20.66, 0 15.43 M5.14 20.57 C1.21 20.11, 0.78 20.03, 0 15.43 M0 15.43 C-0.92 11.17, 0.19 9.55, 0 5.14 M0 15.43 C0.18 11.27, 0.07 7.99, 0 5.14 M0 5.14 C1.48 3.15, 3.67 1.46, 5.14 0 M0 5.14 C-0.54 1.16, 3.96 -0.86, 5.14 0" stroke="#1971c2" stroke-width="2" fill="none"/></g><g stroke-linecap="round" transform="translate(478.7467071419653 235.05383626011155) rotate(44.99999999999995 29.715873926940702 10.285204908496333)"><path d="M5.14 0 C17.17 0.09, 27.34 -0.3, 54.29 0 M5.14 0 C20.62 -1.02, 35.36 0.32, 54.29 0 M54.29 0 C57.44 -1.81, 57.67 1.71, 59.43 5.14 M54.29 0 C58.76 -1.83, 57.36 -0.19, 59.43 5.14 M59.43 5.14 C60 9.51, 59.61 13.49, 59.43 15.43 M59.43 5.14 C59.02 8.23, 59.19 11.76, 59.43 15.43 M59.43 15.43 C61.31 19.35, 58.81 18.93, 54.29 20.57 M59.43 15.43 C59.25 16.67, 59.9 19.62, 54.29 20.57 M54.29 20.57 C42.65 22.85, 33.01 20.63, 5.14 20.57 M54.29 20.57 C38.8 20.4, 22.47 20.3, 5.14 20.57 M5.14 20.57 C1.16 22.38, -0.44 18.45, 0 15.43 M5.14 20.57 C2.5 21.74, 0.76 18.13, 0 15.43 M0 15.43 C0.26 13.96, 0.89 11.2, 0 5.14 M0 15.43 C0.09 12.94, 0.33 10.17, 0 5.14 M0 5.14 C1.95 3.18, 1.25 -0.49, 5.14 0 M0 5.14 C2.25 0.85, 3.86 -1.12, 5.14 0" stroke="#1971c2" stroke-width="2" fill="none"/></g><g stroke-linecap="round" transform="translate(112.25712126550059 117.17548695591233) rotate(315 29.715873926940702 10.285204908496326)"><path d="M5.14 0 C15.52 -0.59, 27.5 0.19, 54.29 0 M5.14 0 C25.08 1.06, 43.86 -0.63, 54.29 0 M54.29 0 C55.96 -0.01, 60.34 0.13, 59.43 5.14 M54.29 0 C55.65 -1.9, 61.19 1.03, 59.43 5.14 M59.43 5.14 C59.7 9.84, 59.69 13.93, 59.43 15.43 M59.43 5.14 C59.03 8.3, 59.82 11.46, 59.43 15.43 M59.43 15.43 C60.53 17.22, 57.56 18.67, 54.29 20.57 M59.43 15.43 C61.61 17.91, 55.68 22.31, 54.29 20.57 M54.29 20.57 C34.87 20.66, 17.01 19.18, 5.14 20.57 M54.29 20.57 C39.46 20.12, 23.19 21.36, 5.14 20.57 M5.14 20.57 C1.27 20.17, 0.68 19.88, 0 15.43 M5.14 20.57 C2.47 19.85, -1.44 16.73, 0 15.43 M0 15.43 C0.78 13.83, -0.29 11.42, 0 5.14 M0 15.43 C0.35 13.26, 0.47 10.72, 0 5.14 M0 5.14 C-0.47 1.23, 3.67 -0.75, 5.14 0 M0 5.14 C2.15 0.59, 1.24 1.34, 5.14 0" stroke="#1971c2" stroke-width="2" fill="none"/></g><g stroke-linecap="round" transform="translate(109.32512989703105 95.76381533852975) rotate(0 32.330841064453125 86.84951782226562)"><path d="M16.17 0 C25.48 0.23, 36.61 1.35, 48.5 0 M16.17 0 C23.94 -1.16, 31.11 -0.26, 48.5 0 M48.5 0 C60.18 -1.59, 62.86 3.73, 64.66 16.17 M48.5 0 C61.03 -0.68, 66.91 6.73, 64.66 16.17 M64.66 16.17 C65.33 66.51, 64.97 112.67, 64.66 157.53 M64.66 16.17 C64.76 53.6, 64.37 89.74, 64.66 157.53 M64.66 157.53 C64.5 166.41, 61.17 172.87, 48.5 173.7 M64.66 157.53 C62.63 170.05, 61.24 172.27, 48.5 173.7 M48.5 173.7 C36.39 171.79, 23.36 175.07, 16.17 173.7 M48.5 173.7 C39.27 174.49, 30.38 173.39, 16.17 173.7 M16.17 173.7 C6.07 174.72, 0.66 167.68, 0 157.53 M16.17 173.7 C3.95 171.57, -1.86 168.67, 0 157.53 M0 157.53 C-1.62 102.72, -2.15 46.51, 0 16.17 M0 157.53 C-0.07 106.96, -1.28 54.69, 0 16.17 M0 16.17 C1.95 4.64, 7.26 -0.98, 16.17 0 M0 16.17 C-0.47 6.73, 7.52 1.38, 16.17 0" stroke="#1971c2" stroke-width="2" fill="none"/></g><g stroke-linecap="round" transform="translate(111.06915587243407 155.75073567417405) rotate(315 29.715873926940702 10.285204908496326)"><path d="M5.14 0 C20.18 1.21, 30.3 1, 54.29 0 M5.14 0 C22.86 0.44, 42.79 -0.35, 54.29 0 M54.29 0 C55.92 -1.65, 60.96 1.12, 59.43 5.14 M54.29 0 C59.96 1.34, 60.53 2.19, 59.43 5.14 M59.43 5.14 C59.46 7.9, 59.07 11.91, 59.43 15.43 M59.43 5.14 C59.81 7.92, 59.49 11.05, 59.43 15.43 M59.43 15.43 C61.33 18.03, 55.95 22.08, 54.29 20.57 M59.43 15.43 C61.39 17.43, 59.85 20.01, 54.29 20.57 M54.29 20.57 C40.71 21.54, 26.13 21.27, 5.14 20.57 M54.29 20.57 C40.98 20.81, 28.45 21.53, 5.14 20.57 M5.14 20.57 C2.37 19.94, -1.25 17, 0 15.43 M5.14 20.57 C-0.15 20.93, 2.18 20.63, 0 15.43 M0 15.43 C-0.52 11.96, 0.67 8.7, 0 5.14 M0 15.43 C-0.22 11.48, 0.4 7.58, 0 5.14 M0 5.14 C1.87 0.74, 1.3 1.16, 5.14 0 M0 5.14 C2.13 3.09, 2.34 1.29, 5.14 0" stroke="#1971c2" stroke-width="2" fill="none"/></g><g stroke-linecap="round" transform="translate(111.29223936852782 195.6439851858928) rotate(315 29.715873926940702 10.285204908496326)"><path d="M5.14 0 C19.09 0.72, 36.81 -0.58, 54.29 0 M5.14 0 C15.9 -0.79, 24.84 -0.83, 54.29 0 M54.29 0 C59.25 -0.59, 61.38 2.88, 59.43 5.14 M54.29 0 C58.82 0.47, 60.79 2.15, 59.43 5.14 M59.43 5.14 C59.05 8.22, 59.55 13.49, 59.43 15.43 M59.43 5.14 C59.45 7.99, 59.98 11.6, 59.43 15.43 M59.43 15.43 C57.66 20.37, 59.42 19.33, 54.29 20.57 M59.43 15.43 C61.57 18.3, 57.3 21.25, 54.29 20.57 M54.29 20.57 C43.63 22.08, 33.22 20.37, 5.14 20.57 M54.29 20.57 C35.44 20.98, 16.24 20.16, 5.14 20.57 M5.14 20.57 C0.46 18.72, -1.62 19.17, 0 15.43 M5.14 20.57 C3.89 22.35, 1.48 18.25, 0 15.43 M0 15.43 C0.7 12.6, 0.79 9.26, 0 5.14 M0 15.43 C0.53 11.4, 0.5 7.5, 0 5.14 M0 5.14 C-0.41 2.88, 3.57 1.2, 5.14 0 M0 5.14 C0.63 3, 1.11 -1.57, 5.14 0" stroke="#1971c2" stroke-width="2" fill="none"/></g><g stroke-linecap="round" transform="translate(111.65808409509032 231.10827961948655) rotate(315 29.715873926940702 10.285204908496333)"><path d="M5.14 0 C24.51 -0.53, 38.92 -2.01, 54.29 0 M5.14 0 C18.97 -0.44, 35.36 0.09, 54.29 0 M54.29 0 C59.67 1.17, 60.39 2.12, 59.43 5.14 M54.29 0 C59.07 0.43, 60.79 1.74, 59.43 5.14 M59.43 5.14 C59.51 8.26, 59.65 10, 59.43 15.43 M59.43 5.14 C59.91 7.17, 58.97 10.02, 59.43 15.43 M59.43 15.43 C61.14 17.61, 59.58 20.08, 54.29 20.57 M59.43 15.43 C59.01 19.54, 55.59 20.88, 54.29 20.57 M54.29 20.57 C35.37 20.3, 19.6 20.41, 5.14 20.57 M54.29 20.57 C40.87 20.51, 26.16 19.9, 5.14 20.57 M5.14 20.57 C0.1 20.89, 1.89 20.4, 0 15.43 M5.14 20.57 C3.19 19.96, 1.12 17.64, 0 15.43 M0 15.43 C0.67 13.07, 0.69 8.46, 0 5.14 M0 15.43 C0.38 12.34, -0.21 10.05, 0 5.14 M0 5.14 C1.85 2.91, 2.26 1.12, 5.14 0 M0 5.14 C-0.6 0.14, 3 0.47, 5.14 0" stroke="#1971c2" stroke-width="2" fill="none"/></g><g stroke-linecap="round" transform="translate(482.0469161873756 486.62693348911546) rotate(315 29.715873926940702 10.285204908496326)"><path d="M5.14 0 C20.6 -1.69, 39.67 0.97, 54.29 0 M5.14 0 C16.75 0.11, 27.8 0.99, 54.29 0 M54.29 0 C58.67 0.41, 60.61 2.09, 59.43 5.14 M54.29 0 C59.07 0.03, 57.34 0.87, 59.43 5.14 M59.43 5.14 C59.69 8.18, 58.6 10.01, 59.43 15.43 M59.43 5.14 C59.07 7.64, 59.97 9.04, 59.43 15.43 M59.43 15.43 C61.29 18.37, 57.35 21.16, 54.29 20.57 M59.43 15.43 C57.3 19.17, 59.36 20.03, 54.29 20.57 M54.29 20.57 C38.51 19.99, 18.71 21.12, 5.14 20.57 M54.29 20.57 C36.41 19.49, 18.98 20.57, 5.14 20.57 M5.14 20.57 C3.61 22.12, 1.28 18.33, 0 15.43 M5.14 20.57 C2.83 19.35, 0.62 20.3, 0 15.43 M0 15.43 C0.68 11.34, -0.32 8.74, 0 5.14 M0 15.43 C-0.2 13.03, 0.38 10.34, 0 5.14 M0 5.14 C0.54 2.83, 1.19 -1.37, 5.14 0 M0 5.14 C1.28 2.18, 3.27 -0.79, 5.14 0" stroke="#1971c2" stroke-width="2" fill="none"/></g><g stroke-linecap="round" transform="translate(479.11492481890605 465.2152618717329) rotate(0 32.330841064453125 86.84951782226562)"><path d="M16.17 0 C25.41 1.19, 33.08 -1.52, 48.5 0 M16.17 0 C24.17 0.68, 30.69 0.3, 48.5 0 M48.5 0 C60.45 0.38, 65.84 5.41, 64.66 16.17 M48.5 0 C57.18 -0.85, 63.3 5.64, 64.66 16.17 M64.66 16.17 C63.37 71.71, 63.11 129.47, 64.66 157.53 M64.66 16.17 C64.26 52.11, 64.34 89.06, 64.66 157.53 M64.66 157.53 C64.3 168.9, 57.42 173.97, 48.5 173.7 M64.66 157.53 C66.3 167.77, 60.6 172.93, 48.5 173.7 M48.5 173.7 C39.29 174.31, 31.91 174.29, 16.17 173.7 M48.5 173.7 C39 173.56, 32.08 174.17, 16.17 173.7 M16.17 173.7 C6.67 173.17, 0.97 167.25, 0 157.53 M16.17 173.7 C6.01 175.15, 1.7 169.96, 0 157.53 M0 157.53 C-1.52 103.27, -1.78 46.97, 0 16.17 M0 157.53 C1.22 122.62, 0.56 87.06, 0 16.17 M0 16.17 C-0.52 4.02, 6.51 0.41, 16.17 0 M0 16.17 C1.56 4.6, 5.66 -0.35, 16.17 0" stroke="#1971c2" stroke-width="2" fill="none"/></g><g stroke-linecap="round" transform="translate(480.85895079430907 525.2021822073772) rotate(315 29.715873926940702 10.285204908496326)"><path d="M5.14 0 C13.98 -2.02, 24.34 1.31, 54.29 0 M5.14 0 C18.91 -0.08, 32.31 -0.1, 54.29 0 M54.29 0 C58.9 0.02, 57.61 0.98, 59.43 5.14 M54.29 0 C56.35 0.26, 61.59 2.28, 59.43 5.14 M59.43 5.14 C58.37 9.77, 58.92 11.53, 59.43 15.43 M59.43 5.14 C60 8.88, 59.43 13.02, 59.43 15.43 M59.43 15.43 C57.58 19.13, 59.14 20.1, 54.29 20.57 M59.43 15.43 C60.76 18.08, 57.08 22.65, 54.29 20.57 M54.29 20.57 C41.65 21.4, 26.34 19.49, 5.14 20.57 M54.29 20.57 C45.04 21.42, 34.54 20.38, 5.14 20.57 M5.14 20.57 C2.69 19.51, 0.54 20.11, 0 15.43 M5.14 20.57 C3.42 22.22, 2.25 20.54, 0 15.43 M0 15.43 C-0.36 13.54, -0.48 9.53, 0 5.14 M0 15.43 C0.04 12.03, -0.23 7.71, 0 5.14 M0 5.14 C1.12 2.12, 3.07 -0.68, 5.14 0 M0 5.14 C0.27 1.36, 2.55 -1.62, 5.14 0" stroke="#1971c2" stroke-width="2" fill="none"/></g><g stroke-linecap="round" transform="translate(481.0820342904028 565.0954317190959) rotate(315 29.715873926940702 10.285204908496326)"><path d="M5.14 0 C20.46 1.97, 38.49 2.4, 54.29 0 M5.14 0 C23.35 0.09, 40.96 -0.09, 54.29 0 M54.29 0 C55.9 -0.74, 58.24 1.94, 59.43 5.14 M54.29 0 C59.88 0.56, 60.69 -0.17, 59.43 5.14 M59.43 5.14 C58.91 7.24, 60.11 12.03, 59.43 15.43 M59.43 5.14 C59.43 7.74, 59.05 10.11, 59.43 15.43 M59.43 15.43 C60.86 18.39, 58.87 19.9, 54.29 20.57 M59.43 15.43 C58.79 20.94, 57.21 20.11, 54.29 20.57 M54.29 20.57 C37.24 19.48, 19.6 19.11, 5.14 20.57 M54.29 20.57 C39.41 20.69, 23.73 20.42, 5.14 20.57 M5.14 20.57 C2.25 21.83, 1.48 20.29, 0 15.43 M5.14 20.57 C3.96 22.25, -0.54 18.3, 0 15.43 M0 15.43 C-0.46 11.13, 0.64 8.2, 0 5.14 M0 15.43 C-0.16 11.38, 0.26 8.13, 0 5.14 M0 5.14 C1.35 1.03, 1.95 -0.3, 5.14 0 M0 5.14 C0.84 0.1, 1.09 -1.12, 5.14 0" stroke="#1971c2" stroke-width="2" fill="none"/></g><g stroke-linecap="round" transform="translate(481.4478790169653 600.5597261526897) rotate(315 29.715873926940702 10.285204908496326)"><path d="M5.14 0 C14.87 1.58, 26.96 0.58, 54.29 0 M5.14 0 C21.49 -0.08, 35.74 -0.46, 54.29 0 M54.29 0 C56.53 0.22, 61.31 2.2, 59.43 5.14 M54.29 0 C58.98 -1.88, 59.25 -0.47, 59.43 5.14 M59.43 5.14 C60.17 10.08, 58.75 14.22, 59.43 15.43 M59.43 5.14 C58.94 8.05, 59.78 10.69, 59.43 15.43 M59.43 15.43 C60.59 18.18, 57.16 22.38, 54.29 20.57 M59.43 15.43 C58.92 18.39, 58.5 21.74, 54.29 20.57 M54.29 20.57 C36.08 18.64, 21.88 22.15, 5.14 20.57 M54.29 20.57 C36.23 19.91, 17.47 21.07, 5.14 20.57 M5.14 20.57 C3.19 22.01, 1.95 20.32, 0 15.43 M5.14 20.57 C1.18 20.01, 2.25 17.99, 0 15.43 M0 15.43 C0.65 12.33, 0.67 7.62, 0 5.14 M0 15.43 C0.31 11.87, 0.38 7.93, 0 5.14 M0 5.14 C0.24 1.41, 2.44 -1.41, 5.14 0 M0 5.14 C-0.63 0.59, 3.39 -0.92, 5.14 0" stroke="#1971c2" stroke-width="2" fill="none"/></g><g stroke-linecap="round"><g transform="translate(140.499837075146 447.1920189877857) rotate(0 0 -34.226530128412435)"><path d="M-0.57 -0.24 C-0.18 -11.66, 1.13 -58.26, 1.17 -69.63 M1.33 -1.42 C1.76 -12.64, 1.28 -57.76, 0.84 -68.71" stroke="#1e1e1e" stroke-width="2" fill="none"/></g><g transform="translate(140.499837075146 447.1920189877857) rotate(0 0 -34.226530128412435)"><path d="M11.72 -40.75 C9.37 -44.51, 5.61 -52.71, 0.84 -68.71 M11.72 -40.75 C8.93 -48.95, 6.1 -57.54, 0.84 -68.71" stroke="#1e1e1e" stroke-width="2" fill="none"/></g><g transform="translate(140.499837075146 447.1920189877857) rotate(0 0 -34.226530128412435)"><path d="M-8.8 -40.3 C-6.98 -44.06, -6.58 -52.34, 0.84 -68.71 M-8.8 -40.3 C-5.42 -48.58, -2.09 -57.3, 0.84 -68.71" stroke="#1e1e1e" stroke-width="2" fill="none"/></g></g><mask/><g stroke-linecap="round"><g transform="translate(142.7111509746129 79.60556061055053) rotate(0 0 -34.226530128412435)"><path d="M0.93 1.04 C0.99 -10.27, 0.29 -56.28, 0.18 -67.82 M-0.04 0.54 C-0.11 -11.12, -0.62 -58.4, -0.67 -69.61" stroke="#1e1e1e" stroke-width="2" fill="none"/></g><g transform="translate(142.7111509746129 79.60556061055053) rotate(0 0 -34.226530128412435)"><path d="M9.82 -41.5 C8.57 -49.1, 4.91 -56.94, -0.67 -69.61 M9.82 -41.5 C6.92 -51.27, 3.63 -59.82, -0.67 -69.61" stroke="#1e1e1e" stroke-width="2" fill="none"/></g><g transform="translate(142.7111509746129 79.60556061055053) rotate(0 0 -34.226530128412435)"><path d="M-10.7 -41.33 C-6.12 -49.14, -3.94 -57.03, -0.67 -69.61 M-10.7 -41.33 C-6.98 -51.28, -3.64 -59.89, -0.67 -69.61" stroke="#1e1e1e" stroke-width="2" fill="none"/></g></g><mask/><g stroke-linecap="round"><g transform="translate(511.6630552714879 84.0431521632849) rotate(0 0 -34.226530128412435)"><path d="M0.28 0.27 C0.44 -11.11, 1.08 -56.09, 1.18 -67.7 M-1.04 -0.63 C-0.94 -12.41, 0.58 -58.1, 0.86 -69.42" stroke="#1e1e1e" stroke-width="2" fill="none"/></g><g transform="translate(511.6630552714879 84.0431521632849) rotate(0 0 -34.226530128412435)"><path d="M10.29 -40.94 C7.62 -47.93, 5.45 -57.37, 0.86 -69.42 M10.29 -40.94 C8.16 -47.85, 5.81 -53.05, 0.86 -69.42" stroke="#1e1e1e" stroke-width="2" fill="none"/></g><g transform="translate(511.6630552714879 84.0431521632849) rotate(0 0 -34.226530128412435)"><path d="M-10.22 -41.54 C-6.42 -48.38, -2.12 -57.63, 0.86 -69.42 M-10.22 -41.54 C-7.76 -48.27, -5.51 -53.33, 0.86 -69.42" stroke="#1e1e1e" stroke-width="2" fill="none"/></g></g><mask/><g stroke-linecap="round"><g transform="translate(512.2970884746129 449.55755646015996) rotate(0 0 -34.226530128412435)"><path d="M-0.91 1.03 C-1.09 -10.48, -0.33 -56.6, -0.28 -68.19 M0.81 0.53 C0.39 -11.45, -0.96 -58.89, -1.38 -70.17" stroke="#1e1e1e" stroke-width="2" fill="none"/></g><g transform="translate(512.2970884746129 449.55755646015996) rotate(0 0 -34.226530128412435)"><path d="M9.78 -42.32 C7.24 -52.99, 1.91 -63.65, -1.38 -70.17 M9.78 -42.32 C6.14 -50.36, 2.34 -59.1, -1.38 -70.17" stroke="#1e1e1e" stroke-width="2" fill="none"/></g><g transform="translate(512.2970884746129 449.55755646015996) rotate(0 0 -34.226530128412435)"><path d="M-10.73 -41.66 C-5.83 -52.42, -3.71 -63.31, -1.38 -70.17 M-10.73 -41.66 C-8.24 -49.94, -5.91 -58.87, -1.38 -70.17" stroke="#1e1e1e" stroke-width="2" fill="none"/></g></g><mask/><g stroke-linecap="round"><g transform="translate(143.78141346636698 183.48596800830455) rotate(0 63.076873779296875 -63.076873779296875)"><path d="M0.62 1.02 C21.55 -19.82, 105.65 -104.59, 126.4 -125.69 M-0.51 0.51 C20.21 -20.64, 104.26 -106.22, 125.58 -127.57" stroke="#2f9e44" stroke-width="2" fill="none"/></g><g transform="translate(143.78141346636698 183.48596800830455) rotate(0 63.076873779296875 -63.076873779296875)"><path d="M113.05 -100.31 C119.52 -110.04, 123.23 -122.31, 125.58 -127.57 M113.05 -100.31 C116.42 -109.08, 121.73 -118.65, 125.58 -127.57" stroke="#2f9e44" stroke-width="2" fill="none"/></g><g transform="translate(143.78141346636698 183.48596800830455) rotate(0 63.076873779296875 -63.076873779296875)"><path d="M98.46 -114.74 C110.24 -119.21, 119.35 -126.15, 125.58 -127.57 M98.46 -114.74 C107.03 -118.57, 117.44 -123.09, 125.58 -127.57" stroke="#2f9e44" stroke-width="2" fill="none"/></g></g><mask/><g stroke-linecap="round"><g transform="translate(509.7435726989527 186.73433839286452) rotate(0 -63.93391902538018 -63.93391902538016)"><path d="M0.17 0.33 C-21.11 -21.24, -106.52 -107.14, -127.78 -128.48 M-1.2 -0.55 C-22.62 -22.05, -107.57 -106.3, -128.68 -127.26" stroke="#2f9e44" stroke-width="2" fill="none"/></g><g transform="translate(509.7435726989527 186.73433839286452) rotate(0 -63.93391902538018 -63.93391902538016)"><path d="M-101.44 -114.69 C-108.93 -118.16, -118.44 -121.12, -128.68 -127.26 M-101.44 -114.69 C-109.85 -119.19, -118.75 -121.96, -128.68 -127.26" stroke="#2f9e44" stroke-width="2" fill="none"/></g><g transform="translate(509.7435726989527 186.73433839286452) rotate(0 -63.93391902538018 -63.93391902538016)"><path d="M-115.9 -100.12 C-119.29 -107.86, -124.58 -115.07, -128.68 -127.26 M-115.9 -100.12 C-119.92 -109.19, -124.31 -116.5, -128.68 -127.26" stroke="#2f9e44" stroke-width="2" fill="none"/></g></g><mask/><g stroke-linecap="round"><g transform="translate(514.4225277770777 554.3287902971614) rotate(0 63.07687377929686 -63.076873779296875)"><path d="M-1.09 0.13 C19.88 -20.65, 104.33 -104.38, 125.46 -125.32 M0.54 -0.85 C21.92 -21.91, 107.12 -105.9, 127.8 -127" stroke="#2f9e44" stroke-width="2" fill="none"/></g><g transform="translate(514.4225277770777 554.3287902971614) rotate(0 63.07687377929686 -63.076873779296875)"><path d="M115.13 -99.81 C118.93 -108.26, 123.56 -115.28, 127.8 -127 M115.13 -99.81 C119.43 -109.75, 124.53 -119.31, 127.8 -127" stroke="#2f9e44" stroke-width="2" fill="none"/></g><g transform="translate(514.4225277770777 554.3287902971614) rotate(0 63.07687377929686 -63.076873779296875)"><path d="M100.62 -114.32 C108.3 -118.69, 116.87 -121.77, 127.8 -127 M100.62 -114.32 C110.06 -119.02, 120.3 -123.43, 127.8 -127" stroke="#2f9e44" stroke-width="2" fill="none"/></g></g><mask/><g stroke-linecap="round"><g transform="translate(138.60026247321633 553.1224992683367) rotate(0 -63.93391902538016 -63.93391902538016)"><path d="M-0.65 0.15 C-21.93 -21.14, -106.6 -107.15, -127.73 -128.39 M1.21 -0.82 C-20.21 -21.88, -107.08 -105.71, -128.6 -127.13" stroke="#2f9e44" stroke-width="2" fill="none"/></g><g transform="translate(138.60026247321633 553.1224992683367) rotate(0 -63.93391902538016 -63.93391902538016)"><path d="M-101.27 -114.75 C-109.04 -118.32, -118.23 -121.42, -128.6 -127.13 M-101.27 -114.75 C-110.46 -119.04, -120.6 -122.96, -128.6 -127.13" stroke="#2f9e44" stroke-width="2" fill="none"/></g><g transform="translate(138.60026247321633 553.1224992683367) rotate(0 -63.93391902538016 -63.93391902538016)"><path d="M-115.62 -100.08 C-119.06 -107.91, -124.01 -115.35, -128.6 -127.13 M-115.62 -100.08 C-119.86 -109.46, -125 -118.48, -128.6 -127.13" stroke="#2f9e44" stroke-width="2" fill="none"/></g></g><mask/><g stroke-linecap="round"><g transform="translate(146.39622332479144 183.93829321431866) rotate(0 58.865705217633945 0)"><path d="M1.12 1.58 C20.25 0.77, 96.87 -2.11, 116.03 -2.58" stroke="#f08c00" stroke-width="2.5" fill="none" stroke-dasharray="8 10"/></g></g><mask/><g stroke-linecap="round"><g transform="translate(268.65574480916655 57.150638882566454) rotate(0 -3.552713678800501e-15 62.035380772181924)"><path d="M-2.24 1.13 C-2.98 21.84, -1.84 105.99, -1.92 126.3" stroke="#2f9e44" stroke-width="2.5" fill="none" stroke-dasharray="8 10"/></g></g><mask/><g stroke-linecap="round"><g transform="translate(501.40171648885405 182.12698775951958) rotate(0 -61.1297607421875 0)"><path d="M-0.9 2.35 C-21.49 2.37, -103.62 0.08, -123.97 -0.03" stroke="#f08c00" stroke-width="2.5" fill="none" stroke-dasharray="8 10"/></g></g><mask/><g stroke-linecap="round"><g transform="translate(518.6084861596131 553.4336632617517) rotate(0 60.67696707589283 0)"><path d="M-2.29 2.76 C17.42 3.05, 99.81 2.07, 120.45 1.74" stroke="#f08c00" stroke-width="2.5" fill="none" stroke-dasharray="8 10"/></g></g><mask/><g stroke-linecap="round"><g transform="translate(137.34000122657721 554.3392505943411) rotate(0 -63.39383806501118 0)"><path d="M-0.46 0.08 C-21.43 0.5, -103.78 1.26, -124.58 1.38" stroke="#f08c00" stroke-width="2.5" fill="none" stroke-dasharray="8 10"/></g></g><mask/><g stroke-linecap="round"><g transform="translate(382.66794843759715 61.78511164370997) rotate(0 -3.552713678800501e-15 62.035380772181924)"><path d="M-0.29 1.5 C-0.25 22.67, -0.34 103.91, -0.28 124.25" stroke="#2f9e44" stroke-width="2.5" fill="none" stroke-dasharray="8 10"/></g></g><mask/><g stroke-linecap="round"><g transform="translate(11.477152539159533 433.1130404592792) rotate(0 0 62.035380772181924)"><path d="M-0.12 2.08 C-0.15 22.38, 2.36 101.35, 2.05 121.57" stroke="#2f9e44" stroke-width="2.5" fill="none" stroke-dasharray="8 10"/></g></g><mask/><g stroke-linecap="round"><g transform="translate(638.4524245815705 438.81359326340873) rotate(0 0 62.035380772181924)"><path d="M1.37 0.15 C1.48 20.96, 2.34 101.84, 1.83 122.49" stroke="#2f9e44" stroke-width="2.5" fill="none" stroke-dasharray="8 10"/></g></g><mask/></svg>