<svg version="1.1" xmlns="http://www.w3.org/2000/svg" viewBox="0 0 455.2143859863281 563.3661498219715" width="455.2143859863281" height="563.3661498219715" class="excalidraw-svg">
  <!-- svg-source:excalidraw -->
  
  <defs>
    <style class="style-fonts">
      @font-face {
        font-family: "Virgil";
        src: url("https://excalidraw.com/Virgil.woff2");
      }
      @font-face {
        font-family: "Cascadia";
        src: url("https://excalidraw.com/Cascadia.woff2");
      }
      @font-face {
        font-family: "Assistant";
        src: url("https://excalidraw.com/Assistant-Regular.woff2");
      }
    </style>
    
  </defs>
  <rect x="0" y="0" width="455.2143859863281" height="563.3661498219715" fill="#ffffff"/><g stroke-linecap="round"><g transform="translate(85.4384765625 100.1601409510248) rotate(0 142.6361083984375 0)"><path d="M1.46 -1.08 C49.77 -1.02, 239.89 -2.49, 287.63 -2.28 M-1.18 -4.14 C47.16 -3.56, 238.55 -1.15, 286.67 0.12" stroke="#1e1e1e" stroke-width="2" fill="none"/></g></g><mask/><g stroke-linecap="round"><g transform="translate(84.170654296875 96.3565520838373) rotate(0 0 185.74386596679688)"><path d="M0.98 2.55 C0.85 64.95, -2.55 312.19, -2.29 373.67 M-1.94 1.47 C-1.07 63.17, 2.2 307.67, 2.88 369.85" stroke="#1e1e1e" stroke-width="2" fill="none"/></g></g><mask/><g stroke-linecap="round"><g transform="translate(373.2464599609375 99.5262298182123) rotate(0 -1.4210854715202004e-14 184.15902709960938)"><path d="M-1.59 2.15 C-1.56 63.75, -1.14 308.47, -1.27 369.81 M2.74 0.85 C2.42 61.61, -4.27 304.81, -4.2 365.61" stroke="#1e1e1e" stroke-width="2" fill="none"/></g></g><mask/><g stroke-linecap="round"><g transform="translate(82.9027099609375 469.1121673182123) rotate(0 144.8548583984375 0)"><path d="M0.93 1.36 C49.47 1.39, 241.89 2.96, 290.08 2.49 M-2 -0.37 C46.3 -1.28, 239.64 -1.38, 288.04 -1.17" stroke="#1e1e1e" stroke-width="2" fill="none"/></g></g><mask/><g stroke-linecap="round" transform="translate(12.93199136846954 397.96887677739176) rotate(44.99999999999995 29.715873926940702 10.285204908496326)"><path d="M5.14 0 C23.43 0.48, 40.62 -0.14, 54.29 0 M5.14 0 C18.92 -0.32, 33.7 0.7, 54.29 0 M54.29 0 C58.61 0.75, 60.75 2.78, 59.43 5.14 M54.29 0 C56.71 1.22, 61.38 1.04, 59.43 5.14 M59.43 5.14 C59.74 7.79, 59.13 11.95, 59.43 15.43 M59.43 5.14 C59.61 7.66, 59.07 9.23, 59.43 15.43 M59.43 15.43 C60.52 20.42, 58.87 19.23, 54.29 20.57 M59.43 15.43 C57.9 19.49, 58.99 20.52, 54.29 20.57 M54.29 20.57 C37.43 19.06, 20.72 21.66, 5.14 20.57 M54.29 20.57 C42.94 21.68, 32.02 21.43, 5.14 20.57 M5.14 20.57 C0.31 22.02, -0.25 18.63, 0 15.43 M5.14 20.57 C1.09 18.67, 0.58 19.66, 0 15.43 M0 15.43 C0.06 11.92, 0.7 8.18, 0 5.14 M0 15.43 C0.39 12.08, -0.31 9.24, 0 5.14 M0 5.14 C1.93 0.06, 1.35 1.46, 5.14 0 M0 5.14 C2.04 0.43, 3.66 1.95, 5.14 0" stroke="#1971c2" stroke-width="2" fill="none"/></g><g stroke-linecap="round" transform="translate(10 376.5572051600092) rotate(0 32.330841064453125 86.84951782226562)"><path d="M16.17 0 C26.46 -0.66, 38.54 -0.75, 48.5 0 M16.17 0 C26.56 -0.54, 37.72 -0.22, 48.5 0 M48.5 0 C60.86 -0.46, 62.95 3.79, 64.66 16.17 M48.5 0 C57.44 -1.72, 65.05 5.9, 64.66 16.17 M64.66 16.17 C66.61 45.91, 63.61 74.91, 64.66 157.53 M64.66 16.17 C64.77 57.87, 64.84 97.84, 64.66 157.53 M64.66 157.53 C65.5 168.66, 58.48 174.14, 48.5 173.7 M64.66 157.53 C63.14 168.98, 60.66 175.66, 48.5 173.7 M48.5 173.7 C41.41 173.51, 34.91 175.34, 16.17 173.7 M48.5 173.7 C38.33 172.95, 26.29 174.6, 16.17 173.7 M16.17 173.7 C5.6 173.69, 1.56 166.98, 0 157.53 M16.17 173.7 C6.02 173.7, -0.66 168.86, 0 157.53 M0 157.53 C-0.62 111.7, 1.16 62.47, 0 16.17 M0 157.53 C-0.47 120.02, -1.61 83.36, 0 16.17 M0 16.17 C-1.36 6.67, 6.27 0.18, 16.17 0 M0 16.17 C0.45 5.21, 5.96 -0.48, 16.17 0" stroke="#1971c2" stroke-width="2" fill="none"/></g><g stroke-linecap="round" transform="translate(11.74402597540302 436.5441254956535) rotate(44.99999999999995 29.715873926940702 10.285204908496326)"><path d="M5.14 0 C18.63 2.37, 30.37 0.11, 54.29 0 M5.14 0 C21.93 -1.11, 41.11 0.02, 54.29 0 M54.29 0 C59.22 1.95, 57.89 0.82, 59.43 5.14 M54.29 0 C59.51 1.39, 61.33 0.3, 59.43 5.14 M59.43 5.14 C60.1 6.81, 60.35 9.25, 59.43 15.43 M59.43 5.14 C59.66 8.24, 59.27 10.39, 59.43 15.43 M59.43 15.43 C61.22 17.99, 59.66 21.87, 54.29 20.57 M59.43 15.43 C59.14 18.33, 56.97 19.35, 54.29 20.57 M54.29 20.57 C40.47 18.99, 25.82 20.01, 5.14 20.57 M54.29 20.57 C39.3 21.3, 22.2 20.49, 5.14 20.57 M5.14 20.57 C1.53 21.39, 0.74 19.33, 0 15.43 M5.14 20.57 C2.77 20.38, -1.66 20.95, 0 15.43 M0 15.43 C0.87 11.78, 0.72 7.65, 0 5.14 M0 15.43 C0.1 11.39, -0.05 7.6, 0 5.14 M0 5.14 C0.25 2.9, 1.6 -0.7, 5.14 0 M0 5.14 C-1.46 2.91, 3.79 -1.85, 5.14 0" stroke="#1971c2" stroke-width="2" fill="none"/></g><g stroke-linecap="round" transform="translate(11.96710947149677 476.4373750073722) rotate(44.99999999999995 29.715873926940702 10.285204908496326)"><path d="M5.14 0 C16.46 0.95, 27.33 1.42, 54.29 0 M5.14 0 C16.67 0.72, 30.18 -0.04, 54.29 0 M54.29 0 C56.86 1.79, 58.56 3.66, 59.43 5.14 M54.29 0 C59.22 -0.29, 58.9 0.96, 59.43 5.14 M59.43 5.14 C59.03 8.26, 58.72 10.96, 59.43 15.43 M59.43 5.14 C59.93 8.4, 59.59 10.58, 59.43 15.43 M59.43 15.43 C58.35 18.67, 58.53 21.32, 54.29 20.57 M59.43 15.43 C59.97 19.91, 57.53 18.91, 54.29 20.57 M54.29 20.57 C36.02 22.1, 16.06 21.82, 5.14 20.57 M54.29 20.57 C41.81 20.6, 27.5 20.3, 5.14 20.57 M5.14 20.57 C3.15 20.82, 1.19 18.74, 0 15.43 M5.14 20.57 C0.91 19.11, 1.2 20.93, 0 15.43 M0 15.43 C0.85 13.66, -1.05 10.35, 0 5.14 M0 15.43 C-0.5 12.57, -0.49 9.96, 0 5.14 M0 5.14 C-1.3 3.24, -0.01 0.93, 5.14 0 M0 5.14 C1.81 -0.46, 2.23 1.87, 5.14 0" stroke="#1971c2" stroke-width="2" fill="none"/></g><g stroke-linecap="round" transform="translate(9.16327646368427 511.901669440966) rotate(44.99999999999995 29.715873926940702 10.285204908496326)"><path d="M5.14 0 C15.29 -1.88, 26.06 1.4, 54.29 0 M5.14 0 C21.95 0.13, 40.26 1.2, 54.29 0 M54.29 0 C57.37 -1.18, 58.25 2.95, 59.43 5.14 M54.29 0 C56.88 0.08, 59.98 3.07, 59.43 5.14 M59.43 5.14 C59.75 8.21, 60.44 10.46, 59.43 15.43 M59.43 5.14 C59.46 8.41, 59.62 12.75, 59.43 15.43 M59.43 15.43 C60.06 18.85, 55.89 18.9, 54.29 20.57 M59.43 15.43 C59.94 17.24, 57.1 20.78, 54.29 20.57 M54.29 20.57 C34.49 22.73, 14.29 21.06, 5.14 20.57 M54.29 20.57 C43.01 19.83, 33.03 20.39, 5.14 20.57 M5.14 20.57 C2.03 22.37, -1.86 20.16, 0 15.43 M5.14 20.57 C0.17 21.82, 1.95 17.53, 0 15.43 M0 15.43 C0.42 12.28, 1.07 10.91, 0 5.14 M0 15.43 C0.33 12.08, 0.3 8.28, 0 5.14 M0 5.14 C-1.29 2.18, 2.95 0.99, 5.14 0 M0 5.14 C-1.52 3.15, 3.96 2.28, 5.14 0" stroke="#1971c2" stroke-width="2" fill="none"/></g><g stroke-linecap="round" transform="translate(383.4846952258914 35.35722825800758) rotate(44.99999999999995 29.715873926940702 10.285204908496326)"><path d="M5.14 0 C18.06 -0.8, 29.93 0.42, 54.29 0 M5.14 0 C23.72 -0.03, 40.56 -0.86, 54.29 0 M54.29 0 C58.71 1.32, 57.78 3.09, 59.43 5.14 M54.29 0 C59.12 -2.25, 58.64 3.78, 59.43 5.14 M59.43 5.14 C58.57 7.78, 60.49 11.51, 59.43 15.43 M59.43 5.14 C59.75 8.45, 59.38 11.67, 59.43 15.43 M59.43 15.43 C58.43 19.47, 59.52 20.74, 54.29 20.57 M59.43 15.43 C59.39 17.76, 56.02 18.87, 54.29 20.57 M54.29 20.57 C38.06 19.41, 19.7 18.73, 5.14 20.57 M54.29 20.57 C34 20.38, 16.07 21.23, 5.14 20.57 M5.14 20.57 C1.68 21.26, -0.08 17.91, 0 15.43 M5.14 20.57 C3.85 18.33, 1.59 17.15, 0 15.43 M0 15.43 C-0.23 12.99, -0.88 11.56, 0 5.14 M0 15.43 C0.22 11.7, 0.08 8.75, 0 5.14 M0 5.14 C-0.53 2.49, 1.26 -0.87, 5.14 0 M0 5.14 C0.87 -0.27, 2.3 -0.74, 5.14 0" stroke="#1971c2" stroke-width="2" fill="none"/></g><g stroke-linecap="round" transform="translate(380.5527038574219 13.945556640625) rotate(0 32.330841064453125 86.84951782226562)"><path d="M16.17 0 C24.9 0.4, 34.47 1.28, 48.5 0 M16.17 0 C24.76 -0.92, 34.69 0.7, 48.5 0 M48.5 0 C57.62 1.37, 65.88 3.43, 64.66 16.17 M48.5 0 C58.48 2.07, 63.83 5.99, 64.66 16.17 M64.66 16.17 C65.43 46.34, 63.78 71.83, 64.66 157.53 M64.66 16.17 C65.68 46.79, 65.18 77.71, 64.66 157.53 M64.66 157.53 C66.46 168.48, 59.24 172.75, 48.5 173.7 M64.66 157.53 C62.96 166.61, 60.65 173.17, 48.5 173.7 M48.5 173.7 C40.07 171.75, 32.04 174.25, 16.17 173.7 M48.5 173.7 C39.53 174.28, 28.93 173.98, 16.17 173.7 M16.17 173.7 C5.3 172.75, 1.86 166.36, 0 157.53 M16.17 173.7 C6.97 171.99, -1.68 167.37, 0 157.53 M0 157.53 C-1.42 123.04, 0.74 84.22, 0 16.17 M0 157.53 C-0.39 115.88, -0.69 75.1, 0 16.17 M0 16.17 C-0.45 4.52, 6.14 -1.73, 16.17 0 M0 16.17 C0.59 4.64, 3.6 -0.39, 16.17 0" stroke="#1971c2" stroke-width="2" fill="none"/></g><g stroke-linecap="round" transform="translate(382.2967298328249 73.9324769762693) rotate(44.99999999999995 29.715873926940702 10.285204908496326)"><path d="M5.14 0 C18.77 1.06, 29.38 1.24, 54.29 0 M5.14 0 C19.72 1.13, 32.48 1.16, 54.29 0 M54.29 0 C58.94 -1.96, 58.74 3.51, 59.43 5.14 M54.29 0 C56.89 0.6, 57.15 -0.28, 59.43 5.14 M59.43 5.14 C59.71 7.6, 58.68 11.89, 59.43 15.43 M59.43 5.14 C59.17 8.48, 59.9 11.55, 59.43 15.43 M59.43 15.43 C59.4 17.9, 56.24 19.09, 54.29 20.57 M59.43 15.43 C60.81 18.33, 57.36 22.24, 54.29 20.57 M54.29 20.57 C44.16 20.86, 30.19 18.57, 5.14 20.57 M54.29 20.57 C40.5 21.23, 26.7 20.41, 5.14 20.57 M5.14 20.57 C3.57 18.62, 1.38 17.37, 0 15.43 M5.14 20.57 C0.03 19.63, -1.03 18.25, 0 15.43 M0 15.43 C0.28 11.83, 0.02 9.78, 0 5.14 M0 15.43 C-0.14 13.45, -0.12 10.84, 0 5.14 M0 5.14 C0.76 -0.01, 2.23 -0.65, 5.14 0 M0 5.14 C-1.79 1.33, 3.59 -0.67, 5.14 0" stroke="#1971c2" stroke-width="2" fill="none"/></g><g stroke-linecap="round" transform="translate(382.51981332891864 113.82572648798805) rotate(44.99999999999995 29.715873926940702 10.285204908496333)"><path d="M5.14 0 C20.05 1.03, 35.54 -1.12, 54.29 0 M5.14 0 C14.31 0.36, 25.74 -1.3, 54.29 0 M54.29 0 C57.03 1.8, 58.71 2.24, 59.43 5.14 M54.29 0 C55.43 -1.99, 59.25 4.01, 59.43 5.14 M59.43 5.14 C58.59 9.9, 59.54 13.18, 59.43 15.43 M59.43 5.14 C59.84 8.28, 59.37 11.09, 59.43 15.43 M59.43 15.43 C57.95 17.38, 58.91 20.11, 54.29 20.57 M59.43 15.43 C59.08 20.52, 56.47 21.46, 54.29 20.57 M54.29 20.57 C43.94 19.18, 33.1 22.36, 5.14 20.57 M54.29 20.57 C36.34 20.26, 19.4 19.76, 5.14 20.57 M5.14 20.57 C3.09 19.08, -1.46 18.04, 0 15.43 M5.14 20.57 C0.68 19.97, -0.24 16.8, 0 15.43 M0 15.43 C-0.09 11.85, -0.92 7.69, 0 5.14 M0 15.43 C-0.09 12.37, 0.22 9.33, 0 5.14 M0 5.14 C0.51 1.07, 0.16 -0.34, 5.14 0 M0 5.14 C1.88 1.04, 3.88 0.57, 5.14 0" stroke="#1971c2" stroke-width="2" fill="none"/></g><g stroke-linecap="round" transform="translate(379.71598032110614 149.2900209215818) rotate(44.99999999999995 29.715873926940702 10.285204908496333)"><path d="M5.14 0 C22.36 -1.17, 38.19 0.67, 54.29 0 M5.14 0 C23.73 -1.32, 40.76 0.56, 54.29 0 M54.29 0 C57 0.52, 57.44 -0.02, 59.43 5.14 M54.29 0 C57.54 2.3, 61.52 2.1, 59.43 5.14 M59.43 5.14 C59.44 7.68, 59.35 9.71, 59.43 15.43 M59.43 5.14 C59.52 8.3, 59.14 11.56, 59.43 15.43 M59.43 15.43 C60.63 18.4, 57.41 22.02, 54.29 20.57 M59.43 15.43 C58.18 19.75, 55.68 22.8, 54.29 20.57 M54.29 20.57 C37.37 21.79, 22.53 20.15, 5.14 20.57 M54.29 20.57 C38.79 19.36, 22.12 19.59, 5.14 20.57 M5.14 20.57 C0.25 19.76, -0.9 18.33, 0 15.43 M5.14 20.57 C1.48 18.51, 1.79 19.28, 0 15.43 M0 15.43 C-0.9 13, -0.25 10.23, 0 5.14 M0 15.43 C0.22 11.5, 0.15 8.29, 0 5.14 M0 5.14 C-1.56 1.38, 3.35 -0.58, 5.14 0 M0 5.14 C2.17 2.28, 2.81 1.36, 5.14 0" stroke="#1971c2" stroke-width="2" fill="none"/></g><g stroke-linecap="round" transform="translate(13.226394444641414 31.41167161738258) rotate(315 29.715873926940702 10.285204908496326)"><path d="M5.14 0 C26.39 -1.48, 44.87 1.94, 54.29 0 M5.14 0 C22.51 0.13, 38.73 0.58, 54.29 0 M54.29 0 C59.53 0.99, 60.68 0.46, 59.43 5.14 M54.29 0 C55.98 0.35, 60.48 0.81, 59.43 5.14 M59.43 5.14 C59.73 8.12, 59.29 11.32, 59.43 15.43 M59.43 5.14 C59.21 8.11, 59.58 10.46, 59.43 15.43 M59.43 15.43 C59 19.95, 57.83 18.76, 54.29 20.57 M59.43 15.43 C59.65 16.73, 55.44 22.67, 54.29 20.57 M54.29 20.57 C37.45 21.9, 21.62 19.62, 5.14 20.57 M54.29 20.57 C35.55 20.47, 18.86 21.43, 5.14 20.57 M5.14 20.57 C1.73 18.98, 0.67 20.45, 0 15.43 M5.14 20.57 C3.87 19.21, -0.1 17.7, 0 15.43 M0 15.43 C-0.11 12.11, 1.1 6.96, 0 5.14 M0 15.43 C-0.32 12.43, 0.07 8.93, 0 5.14 M0 5.14 C0.52 2.36, 0.76 -0.94, 5.14 0 M0 5.14 C-2.11 0.6, 1.1 -1.99, 5.14 0" stroke="#1971c2" stroke-width="2" fill="none"/></g><g stroke-linecap="round" transform="translate(10.294403076171875 10) rotate(0 32.330841064453125 86.84951782226562)"><path d="M16.17 0 C24.85 2, 33.63 -1.49, 48.5 0 M16.17 0 C26.93 0.7, 39.59 0.37, 48.5 0 M48.5 0 C60.52 -1.25, 63.15 5.69, 64.66 16.17 M48.5 0 C60.32 -0.91, 63.91 5.31, 64.66 16.17 M64.66 16.17 C64.81 69.48, 64.14 121.33, 64.66 157.53 M64.66 16.17 C64.05 46.01, 63.67 75.97, 64.66 157.53 M64.66 157.53 C64.77 166.5, 59.47 171.85, 48.5 173.7 M64.66 157.53 C62.38 170.41, 60.42 172.84, 48.5 173.7 M48.5 173.7 C42.14 173.26, 33.72 174.87, 16.17 173.7 M48.5 173.7 C37.15 174.06, 24.44 172.75, 16.17 173.7 M16.17 173.7 C6.06 175.29, 1.88 167.13, 0 157.53 M16.17 173.7 C5.28 172.54, 2.3 166.51, 0 157.53 M0 157.53 C2.25 117.65, 0.82 79.79, 0 16.17 M0 157.53 C0.97 109.67, 0.99 61.14, 0 16.17 M0 16.17 C-0.95 4.45, 3.55 -0.97, 16.17 0 M0 16.17 C-0.61 3.4, 6.83 0.19, 16.17 0" stroke="#1971c2" stroke-width="2" fill="none"/></g><g stroke-linecap="round" transform="translate(12.038429051574894 69.9869203356443) rotate(315 29.715873926940702 10.285204908496326)"><path d="M5.14 0 C16.66 -2.19, 27.27 0.23, 54.29 0 M5.14 0 C22.6 0.09, 38.86 -1.03, 54.29 0 M54.29 0 C56.2 0.31, 60.34 0.93, 59.43 5.14 M54.29 0 C56.97 -0.08, 60.99 2.39, 59.43 5.14 M59.43 5.14 C58.93 9.06, 58.49 11.2, 59.43 15.43 M59.43 5.14 C59.34 9.24, 59.48 12.31, 59.43 15.43 M59.43 15.43 C59.63 17, 55.74 22.4, 54.29 20.57 M59.43 15.43 C60.57 18, 56.55 20.97, 54.29 20.57 M54.29 20.57 C37.02 21.32, 18.5 19.03, 5.14 20.57 M54.29 20.57 C41.81 20.02, 29.65 21.62, 5.14 20.57 M5.14 20.57 C3.59 19.39, -0.09 17.85, 0 15.43 M5.14 20.57 C4.01 18.77, -0.49 18.43, 0 15.43 M0 15.43 C0.19 12.09, 0.33 7.14, 0 5.14 M0 15.43 C0.11 11.75, -0.27 7.51, 0 5.14 M0 5.14 C-1.83 0.74, 1.18 -1.73, 5.14 0 M0 5.14 C1.44 1.91, 1.46 0.58, 5.14 0" stroke="#1971c2" stroke-width="2" fill="none"/></g><g stroke-linecap="round" transform="translate(12.261512547668644 109.88016984736305) rotate(315 29.715873926940702 10.285204908496333)"><path d="M5.14 0 C25.09 1.09, 43.85 -0.55, 54.29 0 M5.14 0 C24.54 -0.87, 41.93 -0.09, 54.29 0 M54.29 0 C58.63 -0.79, 58.78 1.65, 59.43 5.14 M54.29 0 C59.28 0.68, 59.94 1.4, 59.43 5.14 M59.43 5.14 C58.45 8.34, 60.11 12.84, 59.43 15.43 M59.43 5.14 C59.44 7.98, 59.46 11.28, 59.43 15.43 M59.43 15.43 C57.45 20.69, 58.71 19.82, 54.29 20.57 M59.43 15.43 C58.27 19.25, 59.53 22.53, 54.29 20.57 M54.29 20.57 C42.7 19.43, 27.31 22.17, 5.14 20.57 M54.29 20.57 C37.39 20.98, 20.76 19.59, 5.14 20.57 M5.14 20.57 C1.62 19.56, 2 17.29, 0 15.43 M5.14 20.57 C1.22 20.14, 1.78 21.14, 0 15.43 M0 15.43 C0.4 12.06, 0.73 9.99, 0 5.14 M0 15.43 C-0.27 11.59, -0.5 7.98, 0 5.14 M0 5.14 C-0.53 -0.01, 2.97 0.17, 5.14 0 M0 5.14 C-0.26 2.29, 0 -2.03, 5.14 0" stroke="#1971c2" stroke-width="2" fill="none"/></g><g stroke-linecap="round" transform="translate(12.627357274231144 145.3444642809568) rotate(315 29.715873926940702 10.285204908496333)"><path d="M5.14 0 C16.29 -1.15, 27.6 1.65, 54.29 0 M5.14 0 C21.55 0.46, 39.93 -0.09, 54.29 0 M54.29 0 C57.07 -0.07, 60.79 2.3, 59.43 5.14 M54.29 0 C58.22 -0.31, 60.95 0.63, 59.43 5.14 M59.43 5.14 C60.07 9.01, 59.56 12.3, 59.43 15.43 M59.43 5.14 C59.49 8.32, 58.93 12.91, 59.43 15.43 M59.43 15.43 C60.43 18.11, 56.7 20.92, 54.29 20.57 M59.43 15.43 C61.24 20.82, 56.92 22.12, 54.29 20.57 M54.29 20.57 C36.37 21.61, 21.31 20.25, 5.14 20.57 M54.29 20.57 C44.39 20.37, 32.58 20.46, 5.14 20.57 M5.14 20.57 C3.71 19, -0.43 18.49, 0 15.43 M5.14 20.57 C3.49 22.85, -0.56 19.5, 0 15.43 M0 15.43 C0.71 12.04, 0.47 8.43, 0 5.14 M0 15.43 C-0.42 11.76, -0.09 8.15, 0 5.14 M0 5.14 C1.25 1.88, 1.49 0.5, 5.14 0 M0 5.14 C-1.72 -0.31, 3.3 -2.02, 5.14 0" stroke="#1971c2" stroke-width="2" fill="none"/></g><g stroke-linecap="round" transform="translate(383.0161893665164 400.8631181505857) rotate(315 29.715873926940702 10.285204908496326)"><path d="M5.14 0 C18.36 -0.62, 29.19 -0.82, 54.29 0 M5.14 0 C20.82 -0.76, 35.98 -0.75, 54.29 0 M54.29 0 C57.43 -1.86, 58.34 2.47, 59.43 5.14 M54.29 0 C56.66 1.23, 60.3 1.98, 59.43 5.14 M59.43 5.14 C59.82 7.85, 60.25 12.49, 59.43 15.43 M59.43 5.14 C59.66 7.57, 59.52 9.39, 59.43 15.43 M59.43 15.43 C58.65 19.68, 58.46 19.42, 54.29 20.57 M59.43 15.43 C60.94 21.05, 59.12 19.65, 54.29 20.57 M54.29 20.57 C40.25 21.25, 25.94 20.15, 5.14 20.57 M54.29 20.57 C41.99 20.16, 31.62 20.6, 5.14 20.57 M5.14 20.57 C1.29 21.65, -1.48 18.58, 0 15.43 M5.14 20.57 C1.9 20.28, 1.57 20.78, 0 15.43 M0 15.43 C0.03 12.98, 0.11 9.73, 0 5.14 M0 15.43 C0.27 12.75, -0.37 9.43, 0 5.14 M0 5.14 C-1.39 2.39, 2.65 -0.86, 5.14 0 M0 5.14 C-0.62 1.85, 2.13 -1.51, 5.14 0" stroke="#1971c2" stroke-width="2" fill="none"/></g><g stroke-linecap="round" transform="translate(380.0841979980469 379.4514465332031) rotate(0 32.330841064453125 86.84951782226562)"><path d="M16.17 0 C24.59 -0.65, 37.05 -0.41, 48.5 0 M16.17 0 C23.72 -0.66, 32.46 -0.61, 48.5 0 M48.5 0 C58.18 0.75, 63.74 6.46, 64.66 16.17 M48.5 0 C60.14 0.26, 65.61 3.74, 64.66 16.17 M64.66 16.17 C67.02 54.9, 63.84 92.42, 64.66 157.53 M64.66 16.17 C65.46 65.03, 64.9 115.97, 64.66 157.53 M64.66 157.53 C65.4 167.16, 60.58 175.61, 48.5 173.7 M64.66 157.53 C66.06 167.39, 58.64 174.73, 48.5 173.7 M48.5 173.7 C36.61 173.28, 26.52 172.04, 16.17 173.7 M48.5 173.7 C41.4 174.05, 33.46 174.22, 16.17 173.7 M16.17 173.7 C3.91 173.42, 0.16 168.06, 0 157.53 M16.17 173.7 C6.95 175.62, -0.12 169.16, 0 157.53 M0 157.53 C0.19 107.35, -0.06 56.61, 0 16.17 M0 157.53 C-1.49 101.5, -1.55 44.98, 0 16.17 M0 16.17 C0.94 4.53, 4.85 0.12, 16.17 0 M0 16.17 C0.42 3.88, 6.49 -1.83, 16.17 0" stroke="#1971c2" stroke-width="2" fill="none"/></g><g stroke-linecap="round" transform="translate(381.8282239734499 439.4383668688474) rotate(315 29.715873926940702 10.285204908496326)"><path d="M5.14 0 C18.98 -0.32, 31.09 0.04, 54.29 0 M5.14 0 C14.91 -0.45, 24.42 0.86, 54.29 0 M54.29 0 C56.8 1.07, 60.18 1.94, 59.43 5.14 M54.29 0 C58.67 -1.65, 58.73 2.74, 59.43 5.14 M59.43 5.14 C58.77 7.44, 60.05 10.16, 59.43 15.43 M59.43 5.14 C59.25 8.61, 59.64 11.37, 59.43 15.43 M59.43 15.43 C60.74 20.77, 58.94 19.77, 54.29 20.57 M59.43 15.43 C58.8 19.88, 58.16 19.83, 54.29 20.57 M54.29 20.57 C36.8 18.69, 20.54 18.83, 5.14 20.57 M54.29 20.57 C39.62 21.29, 24.64 20.62, 5.14 20.57 M5.14 20.57 C1.88 20.32, 1.36 20.53, 0 15.43 M5.14 20.57 C1.59 21.42, 1.38 19.02, 0 15.43 M0 15.43 C0.01 12.21, 1.01 8.71, 0 5.14 M0 15.43 C-0.29 11.66, 0.31 7.33, 0 5.14 M0 5.14 C-0.53 1.83, 2.08 -1.31, 5.14 0 M0 5.14 C1.1 -0.12, 2.29 0.63, 5.14 0" stroke="#1971c2" stroke-width="2" fill="none"/></g><g stroke-linecap="round" transform="translate(382.05130746954364 479.3316163805662) rotate(315 29.715873926940702 10.285204908496326)"><path d="M5.14 0 C17.17 -0.02, 29.06 -1.21, 54.29 0 M5.14 0 C14.55 0.83, 24.6 0.99, 54.29 0 M54.29 0 C58.47 0.23, 60.26 0.28, 59.43 5.14 M54.29 0 C57.02 1.03, 57.64 3.7, 59.43 5.14 M59.43 5.14 C59.89 9.01, 59.53 12.14, 59.43 15.43 M59.43 5.14 C59.58 7.07, 59.73 10.09, 59.43 15.43 M59.43 15.43 C60.65 18.06, 57.17 21.46, 54.29 20.57 M59.43 15.43 C59.88 18.12, 58.38 18.77, 54.29 20.57 M54.29 20.57 C39.39 18.53, 27.19 20.76, 5.14 20.57 M54.29 20.57 C36.96 20.7, 21.2 20.71, 5.14 20.57 M5.14 20.57 C3.08 22.24, -0.11 19.6, 0 15.43 M5.14 20.57 C3.1 20.73, 1.31 19.18, 0 15.43 M0 15.43 C1.02 12.6, 0.85 7.87, 0 5.14 M0 15.43 C0.31 11.7, -0.07 8.44, 0 5.14 M0 5.14 C0.36 0.4, 2.67 -1.59, 5.14 0 M0 5.14 C0.57 2.34, 0.44 1.53, 5.14 0" stroke="#1971c2" stroke-width="2" fill="none"/></g><g stroke-linecap="round" transform="translate(382.41715219610614 514.7959108141599) rotate(315 29.715873926940702 10.285204908496326)"><path d="M5.14 0 C16.7 -1.29, 30.24 -0.25, 54.29 0 M5.14 0 C14.85 0.35, 25.85 -0.07, 54.29 0 M54.29 0 C58.55 -1.43, 58.82 2.61, 59.43 5.14 M54.29 0 C55.92 1.99, 60.15 0.04, 59.43 5.14 M59.43 5.14 C59.66 8.42, 58.63 10.94, 59.43 15.43 M59.43 5.14 C59.81 9.14, 59.78 11.95, 59.43 15.43 M59.43 15.43 C58.88 19.75, 58.11 19.93, 54.29 20.57 M59.43 15.43 C60.1 17.06, 57.13 19.05, 54.29 20.57 M54.29 20.57 C43.74 20.8, 34.18 19.75, 5.14 20.57 M54.29 20.57 C36.97 20.38, 20.18 21.34, 5.14 20.57 M5.14 20.57 C1.61 21.31, 1.2 19, 0 15.43 M5.14 20.57 C3.02 20.9, 0.82 18.9, 0 15.43 M0 15.43 C0.75 11.24, 0.32 7.64, 0 5.14 M0 15.43 C-0.19 12.03, 0.05 8.23, 0 5.14 M0 5.14 C0.96 0.12, 2.21 0.55, 5.14 0 M0 5.14 C-1.27 3.25, 1.09 1.39, 5.14 0" stroke="#1971c2" stroke-width="2" fill="none"/></g></svg>